<svg width="32" height="32" viewBox="0 0 32 32" fill="none" xmlns="http://www.w3.org/2000/svg">
<path d="M24 29.3327C22.8889 29.3327 21.9444 28.9438 21.1667 28.166C20.3889 27.3882 20 26.4438 20 25.3327C20 25.1771 20.0111 25.016 20.0333 24.8493C20.0556 24.6827 20.0889 24.5327 20.1333 24.3993L10.7333 18.9327C10.3556 19.266 9.93333 19.5271 9.46667 19.716C9 19.9049 8.51111 19.9993 8 19.9993C6.88889 19.9993 5.94444 19.6105 5.16667 18.8327C4.38889 18.0549 4 17.1105 4 15.9993C4 14.8882 4.38889 13.9438 5.16667 13.166C5.94444 12.3882 6.88889 11.9993 8 11.9993C8.51111 11.9993 9 12.0938 9.46667 12.2827C9.93333 12.4716 10.3556 12.7327 10.7333 13.066L20.1333 7.59935C20.0889 7.46602 20.0556 7.31602 20.0333 7.14935C20.0111 6.98268 20 6.82157 20 6.66602C20 5.5549 20.3889 4.61046 21.1667 3.83268C21.9444 3.0549 22.8889 2.66602 24 2.66602C25.1111 2.66602 26.0556 3.0549 26.8333 3.83268C27.6111 4.61046 28 5.5549 28 6.66602C28 7.77713 27.6111 8.72157 26.8333 9.49935C26.0556 10.2771 25.1111 10.666 24 10.666C23.4889 10.666 23 10.5716 22.5333 10.3827C22.0667 10.1938 21.6444 9.93268 21.2667 9.59935L11.8667 15.066C11.9111 15.1993 11.9444 15.3493 11.9667 15.516C11.9889 15.6827 12 15.8438 12 15.9993C12 16.1549 11.9889 16.316 11.9667 16.4827C11.9444 16.6493 11.9111 16.7993 11.8667 16.9327L21.2667 22.3993C21.6444 22.066 22.0667 21.8049 22.5333 21.616C23 21.4271 23.4889 21.3327 24 21.3327C25.1111 21.3327 26.0556 21.7216 26.8333 22.4993C27.6111 23.2771 28 24.2216 28 25.3327C28 26.4438 27.6111 27.3882 26.8333 28.166C26.0556 28.9438 25.1111 29.3327 24 29.3327ZM24 7.99935C24.3778 7.99935 24.6944 7.87157 24.95 7.61602C25.2056 7.36046 25.3333 7.04379 25.3333 6.66602C25.3333 6.28824 25.2056 5.97157 24.95 5.71602C24.6944 5.46046 24.3778 5.33268 24 5.33268C23.6222 5.33268 23.3056 5.46046 23.05 5.71602C22.7944 5.97157 22.6667 6.28824 22.6667 6.66602C22.6667 7.04379 22.7944 7.36046 23.05 7.61602C23.3056 7.87157 23.6222 7.99935 24 7.99935ZM8 17.3327C8.37778 17.3327 8.69444 17.2049 8.95 16.9493C9.20556 16.6938 9.33333 16.3771 9.33333 15.9993C9.33333 15.6216 9.20556 15.3049 8.95 15.0493C8.69444 14.7938 8.37778 14.666 8 14.666C7.62222 14.666 7.30556 14.7938 7.05 15.0493C6.79444 15.3049 6.66667 15.6216 6.66667 15.9993C6.66667 16.3771 6.79444 16.6938 7.05 16.9493C7.30556 17.2049 7.62222 17.3327 8 17.3327ZM24 26.666C24.3778 26.666 24.6944 26.5382 24.95 26.2827C25.2056 26.0271 25.3333 25.7105 25.3333 25.3327C25.3333 24.9549 25.2056 24.6382 24.95 24.3827C24.6944 24.1271 24.3778 23.9993 24 23.9993C23.6222 23.9993 23.3056 24.1271 23.05 24.3827C22.7944 24.6382 22.6667 24.9549 22.6667 25.3327C22.6667 25.7105 22.7944 26.0271 23.05 26.2827C23.3056 26.5382 23.6222 26.666 24 26.666Z" fill="white"/>
</svg>
