<svg width="24" height="25" viewBox="0 0 24 25" fill="none" xmlns="http://www.w3.org/2000/svg">
<path d="M2.66667 22.125H4.56667L17.6 8.68437L15.7 6.725L2.66667 20.1656V22.125ZM0 24.875V19.0312L17.6 0.915625C17.8667 0.663542 18.1611 0.46875 18.4833 0.33125C18.8056 0.19375 19.1444 0.125 19.5 0.125C19.8556 0.125 20.2 0.19375 20.5333 0.33125C20.8667 0.46875 21.1556 0.675 21.4 0.95L23.2333 2.875C23.5 3.12708 23.6944 3.425 23.8167 3.76875C23.9389 4.1125 24 4.45625 24 4.8C24 5.16667 23.9389 5.51615 23.8167 5.84844C23.6944 6.18073 23.5 6.48438 23.2333 6.75938L5.66667 24.875H0ZM16.6333 7.72188L15.7 6.725L17.6 8.68437L16.6333 7.72188Z" fill="#E8EAED"/>
</svg>
