<svg width="34" height="34" viewBox="0 0 34 34" fill="none" xmlns="http://www.w3.org/2000/svg">
<path d="M4.125 33.1266C3.23125 33.1266 2.46615 32.8083 1.82969 32.1719C1.19323 31.5354 0.875 30.7703 0.875 29.8766V7.12656C0.875 6.23281 1.19323 5.46771 1.82969 4.83125C2.46615 4.19479 3.23125 3.87656 4.125 3.87656H18.6281L15.3781 7.12656H4.125V29.8766H26.875V18.5828L30.125 15.3328V29.8766C30.125 30.7703 29.8068 31.5354 29.1703 32.1719C28.5339 32.8083 27.7687 33.1266 26.875 33.1266H4.125ZM10.625 23.3766V16.4703L25.5344 1.56094C25.8594 1.23594 26.225 0.992188 26.6312 0.829688C27.0375 0.667188 27.4437 0.585938 27.85 0.585938C28.2833 0.585938 28.6964 0.667188 29.0891 0.829688C29.4818 0.992188 29.8406 1.23594 30.1656 1.56094L32.4406 3.87656C32.7385 4.20156 32.9688 4.56042 33.1312 4.95313C33.2937 5.34583 33.375 5.74531 33.375 6.15156C33.375 6.55781 33.3005 6.95729 33.1516 7.35C33.0026 7.74271 32.7656 8.10156 32.4406 8.42656L17.5312 23.3766H10.625ZM13.875 20.1266H16.15L25.575 10.7016L24.4375 9.56406L23.2594 8.42656L13.875 17.8109V20.1266Z" fill="#173660"/>
</svg>
