<svg width="40" height="40" viewBox="0 0 40 40" fill="none" xmlns="http://www.w3.org/2000/svg">
<path d="M37.7778 0H2.22222C0.994923 0 0 0.994923 0 2.22222V37.7778C0 39.0051 0.994923 40 2.22222 40H37.7778C39.0051 40 40 39.0051 40 37.7778V2.22222C40 0.994923 39.0051 0 37.7778 0Z" fill="white"/>
<path fill-rule="evenodd" clip-rule="evenodd" d="M2.22222 0C0.994444 0 0 0.998889 0 2.22222V37.7778C0 39.0056 0.991667 40 2.22222 40H13.3333C14.4444 40 15.0439 38.4222 15.0439 37.8956C15.0439 37.42 15.0256 35.8494 15.0167 34.1839C9.45278 35.3894 8.27833 31.8317 8.27833 31.8317C7.36889 29.5272 6.05778 28.9144 6.05778 28.9144C4.24333 27.6772 6.19444 27.7022 6.19444 27.7022C8.20278 27.8428 9.26056 29.7567 9.26056 29.7567C11.0439 32.805 13.9394 31.9233 15.0806 31.4144C15.26 30.1256 15.7783 29.2461 16.3506 28.7478C11.9083 28.2439 7.23833 26.5344 7.23833 18.8956C7.23833 16.7189 8.01945 14.94 9.29945 13.5439C9.09111 13.0422 8.40667 11.0144 9.49278 8.26833C9.49278 8.26833 11.1722 7.73222 14.9939 10.3117C16.5894 9.87 18.3006 9.64833 20 9.64111C21.7 9.64833 23.4122 9.87 25.0106 10.3117C28.8278 7.73222 30.505 8.26833 30.505 8.26833C31.5939 11.0144 30.9089 13.0422 30.7011 13.5439C31.9833 14.9406 32.7594 16.7189 32.7594 18.8956C32.7594 26.5528 28.0806 28.2389 23.6272 28.7322C24.3444 29.3511 24.9839 30.5644 24.9839 32.4244C24.9839 35.0922 24.9606 37.2389 24.9606 37.8956C24.9606 38.4261 24.9606 40 26.6667 40H37.7767C38.366 39.9996 38.9311 39.7653 39.3479 39.3487C39.7648 38.9321 39.9993 38.3671 40 37.7778V2.22222C40 0.994444 39.0011 0 37.7778 0H2.22222Z" fill="#1C3C64"/>
</svg>
