<svg width="40" height="40" viewBox="0 0 40 40" fill="none" xmlns="http://www.w3.org/2000/svg">
<path d="M33.5243 40H6.47669C2.90537 40 0 37.094 0 33.5215V6.47849C0 2.90601 2.90537 0 6.47669 0H33.5243C37.0946 0 40 2.90601 40 6.47849V33.5225C40 37.095 37.0946 40 33.5243 40ZM13.4221 8.27922H26.8442C28.2134 8.27922 29.5265 8.82439 30.4946 9.7948C31.4627 10.7652 32.0066 12.0814 32.0066 13.4537V26.9075C32.0066 28.2798 31.4627 29.596 30.4946 30.5664C29.5265 31.5368 28.2134 32.082 26.8442 32.082H13.4221C12.053 32.082 10.7399 31.5368 9.77179 30.5664C8.80366 29.596 8.25977 28.2798 8.25977 26.9075V13.4537C8.25977 12.0814 8.80366 10.7652 9.77179 9.7948C10.7399 8.82439 12.053 8.27922 13.4221 8.27922ZM13.4221 5.17451C11.2315 5.17451 9.13059 6.04678 7.58159 7.59944C6.03258 9.15209 5.16236 11.2579 5.16236 13.4537V26.9075C5.16236 29.1032 6.03258 31.2091 7.58159 32.7617C9.13059 34.3144 11.2315 35.1867 13.4221 35.1867H26.8442C27.9289 35.1867 29.003 34.9725 30.0051 34.5565C31.0072 34.1404 31.9178 33.5305 32.6848 32.7617C33.4518 31.9929 34.0602 31.0803 34.4753 30.0758C34.8904 29.0713 35.104 27.9947 35.104 26.9075V13.4537C35.104 11.2579 34.2338 9.15209 32.6848 7.59944C31.1358 6.04678 29.0349 5.17451 26.8442 5.17451H13.4221ZM20.1332 27.4249C22.05 27.4249 23.8883 26.6617 25.2437 25.3031C26.599 23.9445 27.3605 22.1019 27.3605 20.1806C27.3605 18.2593 26.599 16.4167 25.2437 15.0581C23.8883 13.6995 22.05 12.9363 20.1332 12.9363C18.2164 12.9363 16.3781 13.6995 15.0227 15.0581C13.6673 16.4167 12.9059 18.2593 12.9059 20.1806C12.9059 22.1019 13.6673 23.9445 15.0227 25.3031C16.3781 26.6617 18.2164 27.4249 20.1332 27.4249ZM20.1332 24.3202C19.0379 24.3202 17.9874 23.8841 17.2129 23.1077C16.4384 22.3314 16.0033 21.2785 16.0033 20.1806C16.0033 19.0827 16.4384 18.0298 17.2129 17.2534C17.9874 16.4771 19.0379 16.041 20.1332 16.041C21.2285 16.041 22.279 16.4771 23.0535 17.2534C23.828 18.0298 24.2631 19.0827 24.2631 20.1806C24.2631 21.2785 23.828 22.3314 23.0535 23.1077C22.279 23.8841 21.2285 24.3202 20.1332 24.3202ZM27.8767 14.4886C28.4244 14.4886 28.9496 14.2706 29.3369 13.8824C29.7241 13.4942 29.9417 12.9678 29.9417 12.4188C29.9417 11.8699 29.7241 11.3434 29.3369 10.9553C28.9496 10.5671 28.4244 10.349 27.8767 10.349C27.3291 10.349 26.8038 10.5671 26.4166 10.9553C26.0293 11.3434 25.8118 11.8699 25.8118 12.4188C25.8118 12.9678 26.0293 13.4942 26.4166 13.8824C26.8038 14.2706 27.3291 14.4886 27.8767 14.4886Z" fill="#1C3C64"/>
</svg>
