<svg width="18" height="20" viewBox="0 0 18 20" fill="none" xmlns="http://www.w3.org/2000/svg">
<path d="M2 17.7968H3.425L13.2 7.06965L11.775 5.50584L2 16.233V17.7968ZM0 19.9916V15.3276L13.2 0.869291C13.4 0.668099 13.6208 0.512633 13.8625 0.402892C14.1042 0.293152 14.3583 0.238281 14.625 0.238281C14.8917 0.238281 15.15 0.293152 15.4 0.402892C15.65 0.512633 15.8667 0.677244 16.05 0.896726L17.425 2.4331C17.625 2.63429 17.7708 2.87206 17.8625 3.14641C17.9542 3.42076 18 3.69512 18 3.96947C18 4.26211 17.9542 4.54103 17.8625 4.80624C17.7708 5.07145 17.625 5.31379 17.425 5.53327L4.25 19.9916H0ZM12.475 6.30146L11.775 5.50584L13.2 7.06965L12.475 6.30146Z" fill="#FF914D"/>
</svg>
