<svg width="40" height="40" viewBox="0 0 40 40" fill="none" xmlns="http://www.w3.org/2000/svg">
<path fill-rule="evenodd" clip-rule="evenodd" d="M34.8732 0H5.12658C2.30983 0 0 2.30992 0 5.12675V34.8732C0 37.6902 2.30983 40 5.12658 40H34.8732C37.6901 40 40 37.6902 40 34.8733V5.12675C40 2.30992 37.6901 0 34.8732 0ZM30.6175 14.6394C30.6268 14.8722 30.6315 15.1052 30.6314 15.3382C30.6314 16.4091 30.505 17.5039 30.2596 18.5911C28.8715 24.7459 23.6096 30.6768 15.0476 30.6768C11.9564 30.6768 9.07683 29.7851 6.65033 28.2543C7.08476 28.3054 7.52183 28.3308 7.95925 28.3305C10.525 28.3305 12.8859 27.4699 14.761 26.0213C12.3642 25.9793 10.343 24.4201 9.64508 22.2784C9.98025 22.3413 10.3228 22.377 10.6746 22.377C11.1773 22.377 11.6586 22.3095 12.1202 22.1868C10.275 21.819 8.78117 20.5427 8.11283 18.8514C7.8725 18.2463 7.74992 17.5885 7.74992 16.8978V16.8298C8.49992 17.2344 9.32233 17.477 10.2187 17.5054C8.75042 16.5381 7.77625 14.8871 7.77625 13.0181C7.77625 12.0302 8.04458 11.1038 8.51433 10.3068C11.215 13.5688 15.2489 15.7161 19.8008 15.9417C19.7076 15.5387 19.6604 15.1264 19.6601 14.7128C19.6601 11.7354 22.1112 9.32125 25.1365 9.32125C26.7126 9.32125 28.1353 9.97467 29.1318 11.023C30.3577 10.7867 31.5344 10.3437 32.6118 9.71283C32.2009 10.9737 31.3349 12.0303 30.2031 12.6971C31.3119 12.5668 32.3662 12.2778 33.348 11.8499C32.616 12.9303 31.6858 13.88 30.6175 14.6394Z" fill="#1C3C64"/>
</svg>
